<svg width="120" height="120" viewBox="0 0 120 120" fill="none" xmlns="http://www.w3.org/2000/svg">
<path d="M120.002 59.9999C120.002 93.1498 93.1518 120 60.0018 120C26.8519 120 0.00195312 93.1498 0.00195312 59.9999C0.00195312 26.85 26.8519 0 60.0018 0C93.1518 0 120.002 27 120.002 59.9999Z" fill="url(#paint0_radial_230_47)"/>
<path d="M120.002 59.9999C120.002 93.1498 93.1518 120 60.0018 120C26.8519 120 0.00195312 93.1498 0.00195312 59.9999C0.00195312 26.85 26.8519 0 60.0018 0C93.1518 0 120.002 27 120.002 59.9999Z" fill="url(#paint1_radial_230_47)"/>
<path d="M43.2012 93.5998C43.2012 94.4998 43.8012 95.0998 44.7012 95.0998C46.9512 95.0998 49.9511 91.0498 59.8511 91.0498C69.7511 91.0498 72.9011 95.0998 75.0011 95.0998C76.0511 95.0998 76.5011 94.4998 76.5011 93.5998C76.5011 91.0498 71.2511 82.0498 59.7011 82.0498C48.6012 82.0498 43.2012 90.8998 43.2012 93.5998Z" fill="url(#paint2_linear_230_47)"/>
<path d="M10.6511 110.25C5.55108 105.15 5.10112 96.8998 9.75111 91.1998L19.5011 79.4998C19.9511 78.8998 21.0011 78.8998 21.4511 79.4998L31.2011 91.1998C35.851 96.7498 35.551 105 30.301 110.25C25.051 115.8 16.2011 115.8 10.6511 110.25Z" fill="url(#paint3_linear_230_47)"/>
<path d="M20.5511 112.5C17.2511 112.5 14.2511 111.3 11.8511 108.9C7.35115 104.4 7.05115 97.3501 11.1011 92.4001L20.5511 81.1501L30.0012 92.4001C34.0512 97.3501 33.7512 104.4 29.2512 108.9C27.0012 111.3 23.8511 112.5 20.5511 112.5Z" fill="url(#paint4_radial_230_47)"/>
<path d="M10.6509 102.6C9.00087 100.95 9.00086 98.3998 10.3509 96.7498L13.3508 93.1499C13.5008 92.9999 13.8009 92.9999 13.9509 93.1499L16.9509 96.7498C18.4509 98.5498 18.3009 101.1 16.6509 102.6C15.1509 104.4 12.3009 104.4 10.6509 102.6Z" fill="url(#paint5_linear_230_47)"/>
<path d="M76.4998 67.1997C76.4998 60.8997 80.6997 55.9497 85.7997 55.9497C90.8997 55.9497 95.0997 61.0497 95.0997 67.1997C95.0997 69.7497 94.3497 72.1497 93.1497 74.0997C92.8497 74.5497 92.5497 74.8497 92.0997 75.1497C91.6497 75.4497 91.1997 75.5997 90.7497 75.7497C87.5997 76.4997 84.1497 76.4997 80.9997 75.7497C80.5497 75.5997 79.9497 75.4497 79.6497 75.1497C79.1997 74.8497 78.8997 74.5497 78.5997 74.0997C77.0997 71.9997 76.4998 69.5997 76.4998 67.1997Z" fill="url(#paint6_radial_230_47)"/>
<path d="M84.4524 60.1497C85.5024 61.3497 85.5024 63.7497 84.6024 65.5497C83.7024 67.3497 82.0524 67.6497 81.0024 66.4497C79.9524 65.2497 79.9524 62.8497 80.8524 61.0497C81.7524 59.2497 83.4024 58.9497 84.4524 60.1497Z" fill="#4E506A"/>
<path d="M43.6505 67.1997C43.6505 60.8997 39.4505 55.9497 34.3505 55.9497C29.2505 55.9497 25.0505 61.0497 25.0505 67.1997C25.0505 69.7497 25.8006 72.1497 27.0006 74.0997C27.3006 74.5497 27.6005 74.8497 28.0505 75.1497C28.5005 75.4497 28.9506 75.5997 29.4006 75.7497C32.5506 76.4997 36.0006 76.4997 39.1505 75.7497C39.6005 75.5997 40.2006 75.4497 40.5006 75.1497C40.9506 74.8497 41.2505 74.5497 41.5505 74.0997C42.9005 71.9997 43.6505 69.5997 43.6505 67.1997Z" fill="url(#paint7_radial_230_47)"/>
<path d="M30.0024 60.1497C28.9524 61.3497 28.9524 63.7497 29.8524 65.5497C30.7524 67.3497 32.4024 67.6497 33.4524 66.4497C34.5024 65.2497 34.5024 62.8497 33.6024 61.0497C32.7024 59.2497 31.0524 58.9497 30.0024 60.1497Z" fill="#4E506A"/>
<path d="M82.0505 40.0502C90.4505 41.8502 95.2505 45.9002 100.65 51.3002C102.45 53.1002 100.05 56.5502 97.8005 54.4502C94.2005 51.1502 89.4005 47.5502 81.1505 45.9002C76.9506 45.0002 78.6005 39.3002 82.0505 40.0502Z" fill="url(#paint8_linear_230_47)"/>
<path d="M37.9514 40.0502C29.5514 41.8502 24.7513 45.9002 19.3514 51.3002C17.5514 53.1002 19.9514 56.5502 22.2014 54.4502C25.8014 51.1502 30.6013 47.5502 38.8513 45.9002C43.0513 45.0002 41.4013 39.3002 37.9514 40.0502Z" fill="url(#paint9_linear_230_47)"/>
<defs>
<radialGradient id="paint0_radial_230_47" cx="0" cy="0" r="1" gradientUnits="userSpaceOnUse" gradientTransform="translate(60.0604 27.0733) rotate(90.1003) scale(92.9773 133.486)">
<stop stop-color="#FFED85"/>
<stop offset="0.1898" stop-color="#FFE180"/>
<stop offset="0.5295" stop-color="#FFC273"/>
<stop offset="0.9773" stop-color="#FF915E"/>
<stop offset="1" stop-color="#FF8E5D"/>
</radialGradient>
<radialGradient id="paint1_radial_230_47" cx="0" cy="0" r="1" gradientUnits="userSpaceOnUse" gradientTransform="translate(32.7416 29.7385) scale(99.9021 99.9021)">
<stop stop-color="#FFEA84" stop-opacity="0"/>
<stop offset="1" stop-color="#F08423" stop-opacity="0.34"/>
</radialGradient>
<linearGradient id="paint2_linear_230_47" x1="59.9754" y1="82.0513" x2="59.8331" y2="95.2637" gradientUnits="userSpaceOnUse">
<stop stop-color="#3F1D04"/>
<stop offset="1" stop-color="#7E2307"/>
</linearGradient>
<linearGradient id="paint3_linear_230_47" x1="20.5022" y1="114.363" x2="20.5022" y2="79.0402" gradientUnits="userSpaceOnUse">
<stop stop-color="#20BBF2"/>
<stop offset="1" stop-color="#007EDB"/>
</linearGradient>
<radialGradient id="paint4_radial_230_47" cx="0" cy="0" r="1" gradientUnits="userSpaceOnUse" gradientTransform="translate(19.7908 105.519) scale(23.1402 23.1402)">
<stop offset="0.0961217" stop-color="#2FD7FC"/>
<stop offset="1" stop-color="#007EDB"/>
</radialGradient>
<linearGradient id="paint5_linear_230_47" x1="13.6806" y1="103.95" x2="13.6806" y2="92.9537" gradientUnits="userSpaceOnUse">
<stop stop-color="#A8E3FF" stop-opacity="0.799"/>
<stop offset="1" stop-color="#6AE1FF" stop-opacity="0"/>
</linearGradient>
<radialGradient id="paint6_radial_230_47" cx="0" cy="0" r="1" gradientUnits="userSpaceOnUse" gradientTransform="translate(85.6453 68.3406) rotate(90) scale(11.4648 12.2507)">
<stop stop-color="#3B426A"/>
<stop offset="0.9792" stop-color="#191A33"/>
</radialGradient>
<radialGradient id="paint7_radial_230_47" cx="0" cy="0" r="1" gradientUnits="userSpaceOnUse" gradientTransform="translate(34.3927 68.3406) rotate(90) scale(11.4648 12.2507)">
<stop stop-color="#3B426A"/>
<stop offset="0.9792" stop-color="#191A33"/>
</radialGradient>
<linearGradient id="paint8_linear_230_47" x1="89.9677" y1="37.0589" x2="89.9677" y2="54.0427" gradientUnits="userSpaceOnUse">
<stop stop-color="#E78E0D"/>
<stop offset="1" stop-color="#CB6000"/>
</linearGradient>
<linearGradient id="paint9_linear_230_47" x1="30.034" y1="37.0589" x2="30.034" y2="54.0427" gradientUnits="userSpaceOnUse">
<stop stop-color="#E78E0D"/>
<stop offset="1" stop-color="#CB6000"/>
</linearGradient>
</defs>
</svg>
