<svg width="120" height="120" viewBox="0 0 120 120" fill="none" xmlns="http://www.w3.org/2000/svg">
<path d="M120.001 59.9999C120.001 93.1657 93.2677 120 60.2262 120C27.1848 120 0.451294 93.1657 0.451294 59.9999C0.451294 26.8341 27.1848 0 60.2262 0C93.1175 0 120.001 26.8341 120.001 59.9999Z" fill="url(#paint0_radial_230_75)"/>
<path d="M119.552 59.9999C119.552 93.1657 92.8184 120 59.7769 120C26.7355 120 0.00195312 93.1657 0.00195312 59.9999C0.00195312 26.8341 26.7355 0 59.7769 0C92.6682 0 119.552 26.8341 119.552 59.9999Z" fill="url(#paint1_radial_230_75)"/>
<path d="M95.9669 71.1555C96.4174 68.5927 95.3661 66.0299 92.9631 65.1254C87.5563 62.8641 76.5926 59.9998 59.6213 59.9998C42.8002 59.9998 31.8365 62.8641 26.2795 65.1254C23.8765 66.0299 22.8252 68.5927 23.2757 71.1555C26.2795 86.5324 35.8916 105.226 59.6213 105.226C83.3511 105.075 92.9631 86.3816 95.9669 71.1555Z" fill="url(#paint2_linear_230_75)"/>
<path d="M83.8023 95.7286C79.2966 91.5075 71.7872 88.1909 59.7721 88.1909C47.6069 88.1909 40.0974 91.5075 35.5918 95.7286C41.299 101.306 49.1087 105.075 59.6219 105.075C70.2853 105.075 78.0951 101.306 83.8023 95.7286Z" fill="url(#paint3_linear_230_75)"/>
<path d="M28.687 50.3518C26.7345 50.3518 25.2326 48.8442 24.9323 46.8844C24.1813 38.7437 30.1889 31.5076 38.4492 30.7538C46.5594 30 53.7684 36.0302 54.5194 44.3216C54.6696 46.4322 53.1677 48.2412 51.2152 48.392C49.1126 48.5427 47.3103 47.0352 47.1601 45.0754C46.8597 41.005 43.2552 37.99 39.2002 38.2915C35.1451 38.593 32.1413 42.2111 32.4417 46.2814C32.5919 48.392 31.09 50.201 29.1375 50.3518C28.8371 50.3518 28.687 50.3518 28.687 50.3518Z" fill="url(#paint4_radial_230_75)"/>
<path d="M90.7141 50.3519C90.5639 50.3519 90.5639 50.3519 90.4137 50.3519C88.3111 50.2011 86.8093 48.3921 87.1096 46.2815C87.41 42.2112 84.4062 38.5931 80.3512 38.2916C76.2961 37.9901 72.6915 40.8544 72.3911 45.0755C72.241 47.186 70.4387 48.6936 68.336 48.3921C66.2334 48.2413 64.7315 46.4323 65.0319 44.3217C65.7829 36.0303 72.9919 30.1509 81.1021 30.7539C89.2123 31.5077 95.2198 38.7438 94.619 46.8845C94.1685 48.8443 92.5164 50.3519 90.7141 50.3519Z" fill="url(#paint5_radial_230_75)"/>
<defs>
<radialGradient id="paint0_radial_230_75" cx="0" cy="0" r="1" gradientUnits="userSpaceOnUse" gradientTransform="translate(59.2311 49.6661) rotate(90.0999) scale(81.2324 83.6338)">
<stop stop-color="#FFED85"/>
<stop offset="0.1898" stop-color="#FFE180"/>
<stop offset="0.5295" stop-color="#FFC273"/>
<stop offset="0.9773" stop-color="#FF915E"/>
<stop offset="1" stop-color="#FF8E5D"/>
</radialGradient>
<radialGradient id="paint1_radial_230_75" cx="0" cy="0" r="1" gradientUnits="userSpaceOnUse" gradientTransform="translate(32.3932 29.692) scale(99.6575 100.032)">
<stop stop-color="#FFEA84" stop-opacity="0"/>
<stop offset="1" stop-color="#F08423" stop-opacity="0.34"/>
</radialGradient>
<linearGradient id="paint2_linear_230_75" x1="59.6213" y1="61.8679" x2="59.6213" y2="114.428" gradientUnits="userSpaceOnUse">
<stop stop-color="#3F1D04"/>
<stop offset="1" stop-color="#7E2307"/>
</linearGradient>
<linearGradient id="paint3_linear_230_75" x1="59.697" y1="86.3056" x2="59.697" y2="104.754" gradientUnits="userSpaceOnUse">
<stop stop-color="#FC607C"/>
<stop offset="1" stop-color="#D91F3A"/>
</linearGradient>
<radialGradient id="paint4_radial_230_75" cx="0" cy="0" r="1" gradientUnits="userSpaceOnUse" gradientTransform="translate(39.6994 40.4935) scale(12.5283 12.5754)">
<stop stop-color="#2C445F"/>
<stop offset="0.9792" stop-color="#191A33"/>
</radialGradient>
<radialGradient id="paint5_radial_230_75" cx="0" cy="0" r="1" gradientUnits="userSpaceOnUse" gradientTransform="translate(79.6242 40.4933) scale(12.5424 12.5896)">
<stop stop-color="#2C445F"/>
<stop offset="0.9792" stop-color="#191A33"/>
</radialGradient>
</defs>
</svg>
