<svg width="120" height="120" viewBox="0 0 120 120" fill="none" xmlns="http://www.w3.org/2000/svg">
<path d="M120.002 59.9999C120.002 93.1498 93.1518 120 60.0018 120C26.8519 120 0.00195312 93.1498 0.00195312 59.9999C0.00195312 26.85 26.8519 0 60.0018 0C93.1518 0 120.002 26.85 120.002 59.9999Z" fill="url(#paint0_radial_230_63)"/>
<path d="M120.002 59.9999C120.002 93.1498 93.1518 120 60.0018 120C26.8519 120 0.00195312 93.1498 0.00195312 59.9999C0.00195312 26.85 26.8519 0 60.0018 0C93.1518 0 120.002 26.85 120.002 59.9999Z" fill="url(#paint1_radial_230_63)"/>
<path d="M42.45 81.1498C41.2501 94.9497 47.8501 104.4 60 104.4C72.15 104.4 78.75 94.9497 77.55 81.1498C76.35 67.3498 69.3 59.5498 60 59.5498C50.8501 59.6998 43.65 67.4998 42.45 81.1498Z" fill="url(#paint2_linear_230_63)"/>
<path d="M92.8503 24.1498C89.8503 20.2498 85.0503 18.8998 78.6003 22.1998C77.2503 22.9498 75.6003 22.3498 74.8503 20.9998C74.1003 19.6498 74.7003 17.9998 76.0503 17.2498C85.0502 12.7498 92.7002 14.9998 97.2002 20.8498C98.1002 22.0498 97.9502 23.8498 96.7502 24.7498C95.5502 25.4998 93.7502 25.3498 92.8503 24.1498Z" fill="#E27421"/>
<path d="M27.2998 24.1498C30.2998 20.2498 35.0998 18.8998 41.5498 22.1998C42.8998 22.9498 44.5498 22.3498 45.2998 20.9998C46.0498 19.6498 45.4498 17.9998 44.0998 17.2498C35.0998 12.7498 27.4498 14.9998 22.9498 20.8498C22.0498 22.0498 22.1998 23.8498 23.3998 24.7498C24.5998 25.4998 26.3998 25.3498 27.2998 24.1498Z" fill="#E27421"/>
<path d="M72.6017 42.8994C72.6017 36.7494 77.2517 31.6494 82.8016 31.6494C88.5016 31.6494 93.0016 36.5994 93.0016 42.8994C93.0016 49.0494 88.3516 54.1494 82.8016 54.1494C77.2517 54.1494 72.6017 49.0494 72.6017 42.8994Z" fill="url(#paint3_radial_230_63)"/>
<path d="M77.1017 38.5495C77.1017 36.5995 78.3016 34.9495 79.6516 34.9495C81.0016 34.9495 82.2016 36.5995 82.2016 38.5495C82.2016 40.4995 81.0016 42.1495 79.6516 42.1495C78.3016 42.1495 77.1017 40.4995 77.1017 38.5495Z" fill="#4E506A"/>
<path d="M47.5525 42.8994C47.5525 36.7494 42.9025 31.6494 37.3525 31.6494C31.6525 31.6494 27.1525 36.5994 27.1525 42.8994C27.1525 49.0494 31.8025 54.1494 37.3525 54.1494C42.9025 54.1494 47.5525 49.0494 47.5525 42.8994Z" fill="url(#paint4_radial_230_63)"/>
<path d="M35.5533 38.5495C35.5533 36.5995 34.3533 34.9495 33.0033 34.9495C31.6533 34.9495 30.4532 36.5995 30.4532 38.5495C30.4532 40.4995 31.6533 42.1495 33.0033 42.1495C34.3533 42.1495 35.5533 40.4995 35.5533 38.5495Z" fill="#4E506A"/>
<defs>
<radialGradient id="paint0_radial_230_63" cx="0" cy="0" r="1" gradientUnits="userSpaceOnUse" gradientTransform="translate(59.1597 49.6699) rotate(90.1003) scale(81.1448 83.858)">
<stop stop-color="#FFED85"/>
<stop offset="0.1898" stop-color="#FFE180"/>
<stop offset="0.5295" stop-color="#FFC273"/>
<stop offset="0.9773" stop-color="#FF915E"/>
<stop offset="1" stop-color="#FF8E5D"/>
</radialGradient>
<radialGradient id="paint1_radial_230_63" cx="0" cy="0" r="1" gradientUnits="userSpaceOnUse" gradientTransform="translate(32.7642 29.73) scale(99.9228 99.9228)">
<stop stop-color="#FFEA84" stop-opacity="0"/>
<stop offset="1" stop-color="#F08423" stop-opacity="0.34"/>
</radialGradient>
<linearGradient id="paint2_linear_230_63" x1="60" y1="59.6782" x2="60" y2="104.401" gradientUnits="userSpaceOnUse">
<stop stop-color="#3F1D04"/>
<stop offset="1" stop-color="#7E2307"/>
</linearGradient>
<radialGradient id="paint3_radial_230_63" cx="0" cy="0" r="1" gradientUnits="userSpaceOnUse" gradientTransform="translate(82.9224 42.8993) scale(10.7262 10.7262)">
<stop stop-color="#2C445F"/>
<stop offset="0.9792" stop-color="#191A33"/>
</radialGradient>
<radialGradient id="paint4_radial_230_63" cx="0" cy="0" r="1" gradientUnits="userSpaceOnUse" gradientTransform="translate(37.1951 42.8993) rotate(180) scale(10.7262 10.7262)">
<stop stop-color="#2C445F"/>
<stop offset="0.9792" stop-color="#191A33"/>
</radialGradient>
</defs>
</svg>
