<svg width="79" height="79" viewBox="0 0 79 79" fill="none" xmlns="http://www.w3.org/2000/svg">
<path d="M64.3301 32V24H56C55.1716 24 54.5 23.3284 54.5 22.5C54.5 21.6716 55.1716 21 56 21H64.3301V13C64.3301 12.1716 65.0017 11.5 65.8301 11.5C66.6584 11.5002 67.3301 12.1717 67.3301 13V21H77C77.8284 21 78.5 21.6716 78.5 22.5C78.5 23.3284 77.8284 24 77 24H67.3301V32C67.3301 32.8283 66.6584 33.4998 65.8301 33.5C65.0017 33.5 64.3301 32.8284 64.3301 32Z" fill="white"/>
<path d="M0 66C0 50 14 42 29.5 42H40.5C51 42 66.4999 49 66.4999 66C66.4999 75 58.964 78.5 51.964 78.5C44.964 78.5 19 79 16 79C8 79 0 75.5 0 66Z" fill="white"/>
<path d="M33.4999 33.5C40.4999 33.5 46.9999 26 46.9999 17C46.9999 8 41.4999 0 33.4999 0C25.4999 0 19.9999 10 19.9999 17C19.9999 24 26.4999 33.5 33.4999 33.5Z" fill="white"/>
</svg>
