<svg width="21" height="18" viewBox="0 0 21 18" fill="none" xmlns="http://www.w3.org/2000/svg">
<path d="M16.75 11.3937V14.3937C13.25 16.3965 11.2501 17.75 10.2501 17.5C9.25 17.25 8.25 16.5 6.75 15.5V13C6.75 12.7358 9.45011 15 10.2501 15C11.25 15 16.75 10.8937 16.75 11.3937Z" fill="#65686C"/>
<path fill-rule="evenodd" clip-rule="evenodd" d="M10.2501 13C9.92351 13 7.25 11 6.75 10.5C6.25 10 5.92039 9.7627 6.25 9.5C6.25 9.5 7.75 8.5 9.25 7.5C9.7374 7.17506 9.66421 6.41421 9.25 6C8.83579 5.58579 8.21863 5.64853 7.75 6C5.75 7.5 3 8.64689 3 8.64689C2.66171 8.45135 2.05453 8.17248 1.75 8C0.5 7.29204 0.0469301 7.1093 0.250057 6.5C0.250032 6.0777 1.75156 5.15633 3.60961 4.0162C4.13644 3.69293 4.69194 3.35206 5.25 3C5.88499 2.5994 6.52396 2.1716 7.12636 1.76829C8.54875 0.815969 9.7675 0 10.2501 0C10.9395 0.184736 12.6079 1.13636 14.75 2.5C17.2682 4.10307 20.2501 6.18947 20.2501 7C20.2501 7.41986 17.879 8.72175 15.6438 9.94907C14.9785 10.3144 14.3252 10.6731 13.75 11C12.7925 11.5442 12.1027 11.9866 11.5898 12.3156C10.8935 12.7622 10.5228 13 10.2501 13Z" fill="#65686C"/>
<path d="M5 12.5C5 11.2574 3.99264 10.25 2.75 10.25C1.50736 10.25 0.5 11.2574 0.5 12.5C0.5 13.7426 1.50736 14.75 2.75 14.75C3.99264 14.75 5 13.7426 5 12.5ZM5.5 12.5C5.5 13.9398 4.39334 15.1183 2.98438 15.2373C2.94621 15.5864 2.82404 16.0197 2.55273 16.3965C2.20636 16.8774 1.63127 17.25 0.75 17.25V16.75C1.46852 16.75 1.89381 16.4558 2.14746 16.1035C2.34671 15.8266 2.44584 15.5033 2.48242 15.2354C1.08928 15.1007 0 13.9284 0 12.5C0 11.0655 1.09844 9.88906 2.5 9.7627V7H3V9.7627C4.40156 9.88906 5.5 11.0655 5.5 12.5Z" fill="#65686C"/>
</svg>
