<svg width="16" height="12" viewBox="0 0 16 12" fill="none" xmlns="http://www.w3.org/2000/svg">
<path d="M7 9V10H0V9H7ZM16 9V10H14.5V9H16ZM2 2V3H0V2H2ZM16 2V3H9V2H16Z" fill="#080809"/>
<path d="M11.25 9.5C11.25 9.08579 10.9142 8.75 10.5 8.75C10.0858 8.75 9.75 9.08579 9.75 9.5C9.75 9.91421 10.0858 10.25 10.5 10.25C10.9142 10.25 11.25 9.91421 11.25 9.5ZM12.75 9.5C12.75 10.7426 11.7426 11.75 10.5 11.75C9.25736 11.75 8.25 10.7426 8.25 9.5C8.25 8.25736 9.25736 7.25 10.5 7.25C11.7426 7.25 12.75 8.25736 12.75 9.5Z" fill="#080809"/>
<path d="M6.25 2.5C6.25 2.08579 5.91421 1.75 5.5 1.75C5.08579 1.75 4.75 2.08579 4.75 2.5C4.75 2.91421 5.08579 3.25 5.5 3.25C5.91421 3.25 6.25 2.91421 6.25 2.5ZM7.75 2.5C7.75 3.74264 6.74264 4.75 5.5 4.75C4.25736 4.75 3.25 3.74264 3.25 2.5C3.25 1.25736 4.25736 0.25 5.5 0.25C6.74264 0.25 7.75 1.25736 7.75 2.5Z" fill="#080809"/>
</svg>
