<svg width="73" height="50" viewBox="0 0 73 50" fill="none" xmlns="http://www.w3.org/2000/svg">
<path d="M67.7419 25C67.7419 16.3499 64.7683 11.4428 61.2856 8.63943C57.7014 5.75455 53.2522 4.83871 50 4.83871H22.5806C18.5717 4.83871 14.1547 6.01002 10.7737 8.99225C7.4561 11.9187 4.83871 16.8503 4.83871 25C4.83871 33.1497 7.4561 38.0813 10.7737 41.0078C14.1547 43.99 18.5717 45.1613 22.5806 45.1613H52.4193C58.1809 45.1613 67.7419 38.6687 67.7419 25ZM72.5806 25C72.5806 41.0087 61.1739 50 52.4193 50H22.5806C17.7186 50 12.055 48.59 7.57308 44.6368C3.02793 40.6277 0 34.2694 0 25C0 15.7306 3.02793 9.37231 7.57308 5.36322C12.055 1.40996 17.7186 0 22.5806 0H50C54.0058 0 59.6374 1.10056 64.3192 4.86864C69.1025 8.71859 72.5806 15.1021 72.5806 25Z" fill="#65686C"/>
<path fill-rule="evenodd" clip-rule="evenodd" d="M12 24.9997C12 23.2182 13.5044 21.7739 15.3602 21.7739H32.8333C34.6891 21.7739 36.1936 23.2182 36.1936 24.9997C36.1936 26.7813 34.6891 28.2255 32.8333 28.2255H15.3602C13.5044 28.2255 12 26.7813 12 24.9997Z" fill="#65686C"/>
<path fill-rule="evenodd" clip-rule="evenodd" d="M23.857 37.9031C22.0755 37.9031 20.6312 36.2984 20.6312 34.3188V15.6809C20.6312 13.7013 22.0755 12.0966 23.857 12.0966C25.6386 12.0966 27.0828 13.7013 27.0828 15.6809V34.3188C27.0828 36.2984 25.6386 37.9031 23.857 37.9031Z" fill="#65686C"/>
<path d="M58.8709 18.5482C58.8709 21.2205 56.7045 23.3869 54.0322 23.3869C51.3598 23.3869 49.1935 21.2205 49.1935 18.5482C49.1935 15.8758 51.3598 13.7095 54.0322 13.7095C56.7045 13.7095 58.8709 15.8758 58.8709 18.5482Z" fill="#65686C"/>
<path d="M52.4194 31.4513C52.4194 34.1236 50.253 36.29 47.5807 36.29C44.9083 36.29 42.7419 34.1236 42.7419 31.4513C42.7419 28.7789 44.9083 26.6125 47.5807 26.6125C50.253 26.6125 52.4194 28.7789 52.4194 31.4513Z" fill="#65686C"/>
</svg>
