<svg width="50" height="50" viewBox="0 0 50 50" fill="none" xmlns="http://www.w3.org/2000/svg">
<path fill-rule="evenodd" clip-rule="evenodd" d="M0 25C0 11.1929 11.1929 0 25 0C38.8071 0 50 11.1929 50 25C50 38.8071 38.8071 50 25 50C11.1929 50 0 38.8071 0 25ZM25 4.16667C13.4941 4.16667 4.16667 13.4941 4.16667 25C4.16667 27.3168 4.54483 29.5452 5.24279 31.6269C6.77266 36.1899 9.83899 40.0482 13.8272 42.5871C17.056 44.6426 20.8889 45.8333 25 45.8333C29.3876 45.8333 33.4585 44.477 36.8161 42.1606C40.5341 39.5957 43.3776 35.8536 44.8082 31.4727C45.4736 29.4352 45.8333 27.2596 45.8333 25C45.8333 23.5949 45.6942 22.2223 45.429 20.8951C43.5227 11.355 35.1008 4.16667 25 4.16667Z" fill="#0866FF"/>
<path fill-rule="evenodd" clip-rule="evenodd" d="M0 25C0 11.1929 11.1929 0 25 0C38.8071 0 50 11.1929 50 25C50 38.8071 38.8071 50 25 50C11.1929 50 0 38.8071 0 25ZM25 4.16667C13.4941 4.16667 4.16667 13.4941 4.16667 25C4.16667 27.3168 4.54483 29.5452 5.24279 31.6269C6.77266 36.1899 9.83899 40.0482 13.8272 42.5871C17.056 44.6426 20.8889 45.8333 25 45.8333C29.3876 45.8333 33.4585 44.477 36.8161 42.1606C40.5341 39.5957 43.3776 35.8536 44.8082 31.4727C45.4736 29.4352 45.8333 27.2596 45.8333 25C45.8333 23.5949 45.6942 22.2223 45.429 20.8951C43.5227 11.355 35.1008 4.16667 25 4.16667Z" fill="#0866FF"/>
<path fill-rule="evenodd" clip-rule="evenodd" d="M9.39311 42.9123C10.4231 37.9204 14.8403 34.1667 20.1389 34.1667H30.6944C35.993 34.1667 40.4102 37.9204 41.4402 42.9123L37.3594 43.7543C37.244 43.1949 37.0598 42.6606 36.8161 42.1606C35.7113 39.8945 33.3836 38.3333 30.6944 38.3333H20.1389C17.2841 38.3333 14.8366 40.0927 13.8272 42.5871C13.676 42.9608 13.557 43.351 13.4738 43.7543L9.39311 42.9123Z" fill="#0866FF"/>
<path fill-rule="evenodd" clip-rule="evenodd" d="M25.4167 15.8333C22.4251 15.8333 20 18.2585 20 21.25C20 24.2415 22.4251 26.6667 25.4167 26.6667C28.4082 26.6667 30.8333 24.2415 30.8333 21.25C30.8333 18.2585 28.4082 15.8333 25.4167 15.8333ZM15.8333 21.25C15.8333 15.9573 20.1239 11.6667 25.4167 11.6667C30.7094 11.6667 35 15.9573 35 21.25C35 26.5427 30.7094 30.8333 25.4167 30.8333C20.1239 30.8333 15.8333 26.5427 15.8333 21.25Z" fill="#0866FF"/>
<path d="M20 21.25C20 18.2585 22.4251 15.8333 25.4167 15.8333C28.4082 15.8333 30.8333 18.2585 30.8333 21.25C30.8333 24.2415 28.4082 26.6667 25.4167 26.6667C22.4251 26.6667 20 24.2415 20 21.25Z" fill="#0866FF"/>
<path d="M13.8272 42.5871C17.056 44.6426 20.8889 45.8333 25 45.8333C29.3876 45.8333 33.4585 44.477 36.8161 42.1606C35.7113 39.8945 33.3836 38.3333 30.6944 38.3333H20.1389C17.2841 38.3333 14.8366 40.0927 13.8272 42.5871Z" fill="#0866FF"/>
<path fill-rule="evenodd" clip-rule="evenodd" d="M10 26.25C10 23.2585 7.57488 20.8333 4.58333 20.8333V16.6667C9.87606 16.6667 14.1667 20.9573 14.1667 26.25C14.1667 31.5427 9.87606 35.8333 4.58333 35.8333V31.6667C4.80656 31.6667 5.02664 31.6532 5.24279 31.6269C7.9233 31.3016 10 29.0183 10 26.25Z" fill="#0866FF"/>
<path fill-rule="evenodd" clip-rule="evenodd" d="M46.25 20.8333C45.9709 20.8333 45.6968 20.8544 45.429 20.8951C42.8271 21.2908 40.8333 23.5375 40.8333 26.25C40.8333 28.7423 42.5166 30.8415 44.8082 31.4727C45.2673 31.5991 45.7508 31.6667 46.25 31.6667V35.8333C40.9573 35.8333 36.6667 31.5427 36.6667 26.25C36.6667 20.9573 40.9573 16.6667 46.25 16.6667V20.8333Z" fill="#0866FF"/>
<path d="M45.8333 25C45.8333 23.5949 45.6942 22.2223 45.429 20.8951C42.8271 21.2908 40.8333 23.5375 40.8333 26.25C40.8333 28.7423 42.5166 30.8415 44.8082 31.4727C45.4736 29.4352 45.8333 27.2596 45.8333 25Z" fill="#0866FF"/>
<path d="M4.58333 20.8333C4.31005 22.1796 4.16667 23.5731 4.16667 25C4.16667 27.3168 4.54483 29.5452 5.24279 31.6269C7.9233 31.3016 10 29.0183 10 26.25C10 23.2585 7.57488 20.8333 4.58333 20.8333Z" fill="#0866FF"/>
</svg>
