<svg width="50" height="50" viewBox="0 0 50 50" fill="none" xmlns="http://www.w3.org/2000/svg">
<path fill-rule="evenodd" clip-rule="evenodd" d="M0 24.5902C0 11.0094 11.0094 0 24.5902 0C38.1709 0 49.1803 11.0094 49.1803 24.5902C49.1803 38.1709 38.1709 49.1803 24.5902 49.1803C11.0094 49.1803 0 38.1709 0 24.5902ZM24.5902 4.09836C13.2729 4.09836 4.09836 13.2729 4.09836 24.5902C4.09836 35.9075 13.2729 45.082 24.5902 45.082C35.9075 45.082 45.082 35.9075 45.082 24.5902C45.082 13.2729 35.9075 4.09836 24.5902 4.09836Z" fill="#65686C"/>
<path fill-rule="evenodd" clip-rule="evenodd" d="M0 25.4097C0 11.829 11.0094 0.81958 24.5902 0.81958C38.1709 0.81958 49.1803 11.829 49.1803 25.4097C49.1803 38.9905 38.1709 49.9999 24.5902 49.9999C11.0094 49.9999 0 38.9905 0 25.4097ZM24.5902 4.91794C13.2729 4.91794 4.09836 14.0924 4.09836 25.4097C4.09836 36.7271 13.2729 45.9016 24.5902 45.9016C35.9075 45.9016 45.082 36.7271 45.082 25.4097C45.082 14.0924 35.9075 4.91794 24.5902 4.91794Z" fill="#65686C"/>
<path fill-rule="evenodd" clip-rule="evenodd" d="M9.23914 42.2088C10.2522 37.2986 14.597 33.6064 19.8087 33.6064H30.1912C35.403 33.6064 39.7477 37.2986 40.7608 42.2088L36.747 43.0369C36.1189 39.9927 33.4199 37.7048 30.1912 37.7048H19.8087C16.58 37.7048 13.8811 39.9927 13.2529 43.0369L9.23914 42.2088Z" fill="#65686C"/>
<path fill-rule="evenodd" clip-rule="evenodd" d="M25 15.5737C22.0575 15.5737 19.6721 17.9591 19.6721 20.9016C19.6721 23.8441 22.0575 26.2294 25 26.2294C27.9425 26.2294 30.3278 23.8441 30.3278 20.9016C30.3278 17.9591 27.9425 15.5737 25 15.5737ZM15.5737 20.9016C15.5737 15.6956 19.794 11.4753 25 11.4753C30.2059 11.4753 34.4262 15.6956 34.4262 20.9016C34.4262 26.1075 30.2059 30.3278 25 30.3278C19.794 30.3278 15.5737 26.1075 15.5737 20.9016Z" fill="#65686C"/>
<path fill-rule="evenodd" clip-rule="evenodd" d="M9.83605 26.6394C9.83605 23.6969 7.45068 21.3115 4.50818 21.3115V17.2131C9.71414 17.2131 13.9344 21.4334 13.9344 26.6394C13.9344 31.8453 9.71414 36.0656 4.50818 36.0656V31.9672C7.45068 31.9672 9.83605 29.5819 9.83605 26.6394Z" fill="#65686C"/>
<path fill-rule="evenodd" clip-rule="evenodd" d="M45.4918 21.3115C42.5493 21.3115 40.1639 23.6969 40.1639 26.6394C40.1639 29.5819 42.5493 31.9672 45.4918 31.9672V36.0656C40.2858 36.0656 36.0656 31.8453 36.0656 26.6394C36.0656 21.4334 40.2858 17.2131 45.4918 17.2131V21.3115Z" fill="#65686C"/>
</svg>
