<svg width="48" height="50" viewBox="0 0 48 50" fill="none" xmlns="http://www.w3.org/2000/svg">
<path fill-rule="evenodd" clip-rule="evenodd" d="M25.3466 4.73754C24.3056 3.93682 22.8562 3.93682 21.8153 4.73754L5.26724 17.4668C4.55461 18.015 4.137 18.8631 4.137 19.7622V42.9671C4.137 44.5665 5.43354 45.863 7.03291 45.863H14.0658H32.2687H40.1289C41.7283 45.863 43.0248 44.5665 43.0248 42.9671V19.7621C43.0248 18.8631 42.6072 18.015 41.8946 17.4668L25.3466 4.73754ZM19.2929 1.45846C21.8209 -0.486152 25.341 -0.486153 27.869 1.45846L44.417 14.1877C46.1477 15.519 47.1618 17.5786 47.1618 19.7621V42.9671C47.1618 46.8513 44.0131 50 40.1289 50H7.03291C3.14874 50 0 46.8513 0 42.9671V19.7622C0 17.5787 1.01417 15.519 2.74487 14.1877L19.2929 1.45846Z" fill="#65686C"/>
<path fill-rule="evenodd" clip-rule="evenodd" d="M14.0658 31.3838C14.0658 28.4135 16.4737 26.0057 19.4439 26.0057H26.8906C29.8608 26.0057 32.2687 28.4135 32.2687 31.3838V45.863V47.9318H28.1317V31.3838C28.1317 30.6983 27.576 30.1427 26.8906 30.1427H19.4439C18.7585 30.1427 18.2028 30.6983 18.2028 31.3838V47.9318H14.0658V45.863V31.3838Z" fill="#65686C"/>
</svg>
