<svg width="52" height="50" viewBox="0 0 52 50" fill="none" xmlns="http://www.w3.org/2000/svg">
<path fill-rule="evenodd" clip-rule="evenodd" d="M5.49041 6.34817L4.18889 16.1096C4.18573 16.1333 4.18216 16.1569 4.17817 16.1805C3.86068 18.0578 4.52248 19.4368 5.70499 20.4326C6.96335 21.4923 8.86009 22.1311 10.8172 22.1311C12.893 22.1311 14.7292 21.1042 15.8455 19.5215C16.2035 19.0139 16.7723 18.6961 17.3921 18.6574C18.012 18.6186 18.616 18.863 19.0344 19.322C21.0302 21.5111 23.5421 22.9508 25.9811 22.9508C28.4201 22.9508 30.932 21.5111 32.9278 19.322C33.3462 18.863 33.9502 18.6186 34.5701 18.6574C35.1899 18.6961 35.7587 19.0139 36.1167 19.5215C37.233 21.1042 39.0692 22.1311 41.145 22.1311C43.1097 22.1311 44.9631 21.4686 46.1622 20.3972C47.2844 19.3945 47.9086 17.989 47.5173 16.0637C47.5138 16.0465 47.5105 16.0293 47.5075 16.012L45.782 6.24539C45.4542 4.98329 44.314 4.09836 43.0055 4.09836H8.29169C6.94341 4.09836 5.77993 5.03662 5.49041 6.34817ZM1.45977 5.60083C2.1111 2.34418 4.97055 0 8.29169 0H43.0055C46.227 0 49.0285 2.20866 49.7803 5.34125C49.79 5.38156 49.7984 5.42216 49.8056 5.46298L51.539 15.2745C52.2239 18.69 51.0376 21.537 48.8929 23.4533C46.8193 25.3061 43.9386 26.2295 41.145 26.2295C38.5342 26.2295 36.1518 25.2519 34.3441 23.6467C32.0689 25.5915 29.1782 27.0492 25.9811 27.0492C22.784 27.0492 19.8933 25.5915 17.6181 23.6467C15.8104 25.2519 13.428 26.2295 10.8172 26.2295C8.06557 26.2295 5.18373 25.3516 3.0651 23.5675C0.878579 21.7262 -0.433443 18.948 0.130952 15.5344L1.43795 5.73188C1.44381 5.68797 1.45109 5.64426 1.45977 5.60083Z" fill="#65686C"/>
<path fill-rule="evenodd" clip-rule="evenodd" d="M7.12863 21.7212V38.1146C7.12863 42.4152 10.6149 45.9015 14.9155 45.9015H37.8663C42.1669 45.9015 45.6532 42.4152 45.6532 38.1146V21.7212H49.7516V38.1146C49.7516 44.6787 44.4304 49.9999 37.8663 49.9999H14.9155C8.35148 49.9999 3.03027 44.6787 3.03027 38.1146V21.7212H7.12863Z" fill="#65686C"/>
<path fill-rule="evenodd" clip-rule="evenodd" d="M16.9647 36.4753C16.9647 33.5328 19.3501 31.1475 22.2926 31.1475H29.6696C32.6121 31.1475 34.9975 33.5328 34.9975 36.4753V47.9507H30.8991V36.4753C30.8991 35.7963 30.3487 35.2458 29.6696 35.2458H22.2926C21.6136 35.2458 21.0631 35.7963 21.0631 36.4753V47.9507H16.9647V36.4753Z" fill="#65686C"/>
</svg>
