<svg width="36" height="36" viewBox="0 0 36 36" fill="none" xmlns="http://www.w3.org/2000/svg">
<path d="M0 2C0 0.89543 0.895431 0 2 0H8C9.10457 0 10 0.895431 10 2V8C10 9.10457 9.10457 10 8 10H2C0.89543 10 0 9.10457 0 8V2Z" fill="#080809"/>
<path d="M13 2C13 0.89543 13.8954 0 15 0H21C22.1046 0 23 0.895431 23 2V8C23 9.10457 22.1046 10 21 10H15C13.8954 10 13 9.10457 13 8V2Z" fill="#080809"/>
<path d="M26 2C26 0.89543 26.8954 0 28 0H34C35.1046 0 36 0.895431 36 2V8C36 9.10457 35.1046 10 34 10H28C26.8954 10 26 9.10457 26 8V2Z" fill="#080809"/>
<path d="M0 15C0 13.8954 0.895431 13 2 13H8C9.10457 13 10 13.8954 10 15V21C10 22.1046 9.10457 23 8 23H2C0.89543 23 0 22.1046 0 21V15Z" fill="#080809"/>
<path d="M13 15C13 13.8954 13.8954 13 15 13H21C22.1046 13 23 13.8954 23 15V21C23 22.1046 22.1046 23 21 23H15C13.8954 23 13 22.1046 13 21V15Z" fill="#080809"/>
<path d="M26 15C26 13.8954 26.8954 13 28 13H34C35.1046 13 36 13.8954 36 15V21C36 22.1046 35.1046 23 34 23H28C26.8954 23 26 22.1046 26 21V15Z" fill="#080809"/>
<path d="M0 28C0 26.8954 0.895431 26 2 26H8C9.10457 26 10 26.8954 10 28V34C10 35.1046 9.10457 36 8 36H2C0.89543 36 0 35.1046 0 34V28Z" fill="#080809"/>
<path d="M13 28C13 26.8954 13.8954 26 15 26H21C22.1046 26 23 26.8954 23 28V34C23 35.1046 22.1046 36 21 36H15C13.8954 36 13 35.1046 13 34V28Z" fill="#080809"/>
<path d="M26 28C26 26.8954 26.8954 26 28 26H34C35.1046 26 36 26.8954 36 28V34C36 35.1046 35.1046 36 34 36H28C26.8954 36 26 35.1046 26 34V28Z" fill="#080809"/>
</svg>
