<svg width="41" height="44" viewBox="0 0 41 44" fill="none" xmlns="http://www.w3.org/2000/svg">
<path fill-rule="evenodd" clip-rule="evenodd" d="M14.6834 2.08364C4.3649 5.44357 -1.27617 16.5322 2.08376 26.8507C3.12043 30.0344 4.89529 32.7761 7.15739 34.9442L7.60045 40.1524C7.5309 42.0868 9.74208 43.2313 11.2813 42.0576L15.8676 39.7976C19.3683 40.702 23.1608 40.6519 26.8508 39.4504C37.1694 36.0904 42.8104 25.0018 39.4505 14.6833C36.0906 4.36477 25.002 -1.27629 14.6834 2.08364ZM15.7689 16.0575C16.3226 15.5384 17.1658 15.4823 17.7834 15.9234L24.4496 19.628L29.2834 15.0079C29.9052 14.3861 31.1616 13.8861 31.7834 14.5079C32.4052 15.1297 32.4052 16.3861 31.7834 17.0079L25.7476 26.0079C25.1972 26.5583 24.3296 26.6301 23.6962 26.1777L18.0708 22.0079L12.2834 26.5079C11.6418 27.1094 10.3849 27.6495 9.78339 27.0079C9.18194 26.3664 9.14184 25.6094 9.78339 25.0079L15.7689 16.0575Z" fill="#080809" stroke="#080809" stroke-linejoin="round"/>
</svg>
