<svg width="40" height="42" viewBox="0 0 40 42" fill="none" xmlns="http://www.w3.org/2000/svg">
<path fill-rule="evenodd" clip-rule="evenodd" d="M13.6833 1.08364C3.36477 4.44357 -2.27629 15.5322 1.08364 25.8507C2.12031 29.0344 3.89517 31.7761 6.15727 33.9442L6.60033 39.1524C6.53078 41.0868 8.74196 42.2313 10.2812 41.0576L14.8675 38.7976C18.3681 39.702 22.1607 39.6519 25.8507 38.4504C36.1692 35.0904 41.8103 24.0018 38.4504 13.6833C35.0904 3.36477 24.0018 -2.27629 13.6833 1.08364ZM14.7687 15.0575C15.3225 14.5384 16.1656 14.4823 16.7833 14.9234L23.4495 18.628L28.2833 14.0079C28.9051 13.3861 30.1614 12.8861 30.7833 13.5079C31.4051 14.1297 31.4051 15.3861 30.7833 16.0079L24.7475 25.0079C24.1971 25.5583 23.3295 25.6301 22.6961 25.1777L17.0707 21.0079L11.2833 25.5079C10.6417 26.1094 9.38473 26.6495 8.78327 26.0079C8.18181 25.3664 8.14172 24.6094 8.78327 24.0079L14.7687 15.0575Z" fill="#0866FF"/>
</svg>
