<svg width="37" height="39" viewBox="0 0 37 39" fill="none" xmlns="http://www.w3.org/2000/svg">
<path d="M0 30C0 29.4083 0.196863 28.8756 0.401367 28.4238C0.505482 28.1938 0.624771 27.9576 0.740234 27.7295C0.858644 27.4956 0.97698 27.262 1.09473 27.0117C1.55228 26.0391 1.99902 24.8115 1.99902 23V15C1.99902 14.3469 2.22237 13.1061 2.69727 11.6572C3.18087 10.1818 3.95255 8.40723 5.10742 6.69141C7.42927 3.24188 11.3339 0.000127703 17.499 0C22.5092 0 26.5881 1.85316 29.4092 4.88086C32.2215 7.8992 33.7314 12.0269 33.7314 16.5V23L33.7383 23.2686C33.8026 24.5871 34.3355 25.5684 34.9531 26.5166C35.2651 26.9956 35.6608 27.5538 35.9453 28.0762C36.243 28.6228 36.5 29.2632 36.5 30C36.5 30.6475 36.3548 31.2222 36.0361 31.6943C35.7152 32.1697 35.2777 32.4529 34.8477 32.6172C34.2598 32.8416 33.5902 32.8693 33.1221 32.8691L32.7314 32.8662H24.4268C24.2515 34.0862 23.7533 35.3162 22.8916 36.3213C21.7721 37.6271 20.0845 38.5 17.8662 38.5C13.8569 38.5 11.5679 35.4966 11.0938 32.8662H2.99902C2.3952 32.8662 1.63478 32.7646 1.00977 32.2939C0.371866 31.8133 0.0425749 31.0801 0.00390625 30.1816L0 30ZM13.1348 32.8662C13.5892 34.6143 15.1913 36.5 17.8662 36.5C19.5139 36.5 20.643 35.8722 21.374 35.0195C21.9008 34.4049 22.2422 33.6464 22.3994 32.8662H13.1348ZM3.99902 23C3.99902 25.1885 3.44645 26.7109 2.9043 27.8633C2.78198 28.1233 2.65983 28.3645 2.55044 28.5804C2.54168 28.5977 2.533 28.6149 2.52441 28.6318C2.40571 28.8663 2.30687 29.0642 2.22363 29.248C2.05329 29.6243 2 29.8419 2 30L2.00684 30.1768C2.03686 30.5491 2.15984 30.6563 2.21289 30.6963C2.31429 30.7726 2.51077 30.8454 2.84668 30.8623L2.99902 30.8662H33.1533C33.5493 30.8646 33.8712 30.8493 34.1338 30.749C34.2705 30.6968 34.3371 30.638 34.3789 30.5762C34.4229 30.511 34.5 30.3524 34.5 30C34.5 29.7368 34.4098 29.4396 34.1885 29.0332C33.954 28.6025 33.6574 28.1918 33.2773 27.6084C32.5522 26.495 31.7314 25.0439 31.7314 23V16.5C31.7314 12.4731 30.375 8.8508 27.9463 6.24414C25.5264 3.64695 21.9888 2 17.499 2C12.1646 2.00013 8.81965 4.75833 6.7666 7.80859C5.73403 9.34274 5.0359 10.9432 4.59766 12.2803C4.15074 13.6438 3.99902 14.6532 3.99902 15V23Z" fill="#080809"/>
<path d="M3.99902 23C3.99902 25.1885 3.44645 26.7109 2.9043 27.8633C2.78198 28.1233 2.65983 28.3645 2.55044 28.5804L2.52441 28.6318C2.40571 28.8663 2.30687 29.0642 2.22363 29.248C2.05329 29.6243 2 29.8419 2 30L2.00684 30.1768C2.03686 30.5491 2.15984 30.6563 2.21289 30.6963C2.31429 30.7726 2.51077 30.8454 2.84668 30.8623L2.99902 30.8662H33.1533C33.5493 30.8646 33.8712 30.8493 34.1338 30.749C34.2705 30.6968 34.3371 30.638 34.3789 30.5762C34.4229 30.511 34.5 30.3524 34.5 30C34.5 29.7368 34.4098 29.4396 34.1885 29.0332C33.954 28.6025 33.6574 28.1918 33.2773 27.6084C32.5522 26.495 31.7314 25.0439 31.7314 23V16.5C31.7314 12.4731 30.375 8.8508 27.9463 6.24414C25.5264 3.64695 21.9888 2 17.499 2C12.1646 2.00013 8.81965 4.75833 6.7666 7.80859C5.73403 9.34274 5.0359 10.9432 4.59766 12.2803C4.15074 13.6438 3.99902 14.6532 3.99902 15V23Z" fill="#080809"/>
</svg>
