<svg width="19" height="18" viewBox="0 0 19 18" fill="none" xmlns="http://www.w3.org/2000/svg">
<path fill-rule="evenodd" clip-rule="evenodd" d="M9.30487 0.142125C4.49882 0.277039 0.645802 4.3773 0.69892 9.30032C0.715309 10.8193 1.10223 12.2408 1.77105 13.4754L0.408027 16.2958C0.122378 17.1288 0.905283 17.9113 1.7113 17.5985L4.80934 16.7082C6.16903 17.5521 7.77855 18.0182 9.49722 17.9699C14.3033 17.835 18.1563 13.7348 18.1032 8.81175C18.0501 3.88874 14.1109 0.00721108 9.30487 0.142125ZM14.2113 13.75L14.2113 12.25L4.2113 12.25L4.2113 13.75L14.2113 13.75ZM10.7113 9.75L10.7113 8.25L4.2113 8.25L4.2113 9.75L10.7113 9.75ZM14.1443 6L14.2113 4.25L4.2113 4.25L4.14432 6L14.1443 6Z" fill="#65686C"/>
</svg>
