<svg width="50" height="50" viewBox="0 0 50 50" fill="none" xmlns="http://www.w3.org/2000/svg">
<path d="M35.5001 20.2858C35.5001 15.6337 33.3689 11.8575 30.3395 9.1953C27.2631 6.4918 23.4067 5.07145 20.2858 5.07145C12.9932 5.07145 5.07145 10.9272 5.07145 20.2858C5.07145 29.7169 12.2266 35.5001 20.2858 35.5001C28.183 35.5001 35.5001 28.183 35.5001 20.2858ZM40.5716 20.2858C40.5716 30.9839 30.9839 40.5716 20.2858 40.5716C9.74964 40.5716 0 32.831 0 20.2858C0 7.66812 10.6736 0 20.2858 0C24.772 0 29.7907 1.96068 33.6875 5.38511C37.6313 8.85087 40.5716 13.9498 40.5716 20.2858Z" fill="#65686C"/>
<path fill-rule="evenodd" clip-rule="evenodd" d="M49.024 49.024C50.7145 47.3335 49.8692 44.7978 49.024 43.9526C47.6716 42.6002 38.8811 34.9366 34.6549 31.2739L31.2739 35.5001C35.2184 39.7263 43.2764 48.3478 43.9526 49.024C44.7978 49.8692 47.6816 50.7145 49.024 49.024ZM46.4883 47.3335C46.9551 47.3335 47.3335 46.9551 47.3335 46.4883C47.3335 46.0215 46.9551 45.643 46.4883 45.643C46.0215 45.643 45.643 46.0215 45.643 46.4883C45.643 46.9551 46.0215 47.3335 46.4883 47.3335Z" fill="#65686C"/>
</svg>
