<svg width="53" height="50" viewBox="0 0 53 50" fill="none" xmlns="http://www.w3.org/2000/svg">
<path fill-rule="evenodd" clip-rule="evenodd" d="M0 12.6087C0 5.64511 5.6451 0 12.6087 0H39.5652C46.5288 0 52.1739 5.64511 52.1739 12.6087V29.1304C52.1739 36.094 46.5288 41.7391 39.5652 41.7391H12.6087C5.6451 41.7391 0 36.094 0 29.1304V12.6087ZM12.6087 4.34783C8.04634 4.34783 4.34783 8.04634 4.34783 12.6087V29.1304C4.34783 33.6928 8.04634 37.3913 12.6087 37.3913H39.5652C44.1276 37.3913 47.8261 33.6928 47.8261 29.1304V12.6087C47.8261 8.04634 44.1276 4.34783 39.5652 4.34783H12.6087Z" fill="#0866FF"/>
<path fill-rule="evenodd" clip-rule="evenodd" d="M4.34783 12.6087C4.34783 8.04634 8.04634 4.34783 12.6087 4.34783H39.5652C44.1276 4.34783 47.8261 8.04634 47.8261 12.6087V29.1304C47.8261 33.6928 44.1276 37.3913 39.5652 37.3913H12.6087C8.04634 37.3913 4.34783 33.6928 4.34783 29.1304V12.6087ZM20.4348 15.6521V26.9619C20.4348 28.307 21.8963 29.1429 23.0557 28.4609L32.6691 22.806C33.8122 22.1336 33.8122 20.4804 32.6691 19.808L23.0557 14.153C21.8963 13.4711 20.4348 14.307 20.4348 15.6521Z" fill="#0866FF"/>
<path fill-rule="evenodd" clip-rule="evenodd" d="M15.2174 47.3914C15.2174 45.9507 16.3854 44.7827 17.8261 44.7827H35.2174C36.6582 44.7827 37.8261 45.9507 37.8261 47.3914C37.8261 48.8322 36.6582 50.0001 35.2174 50.0001H17.8261C16.3854 50.0001 15.2174 48.8322 15.2174 47.3914Z" fill="#0866FF"/>
</svg>
