<svg width="576" height="103" viewBox="0 0 576 103" fill="none" xmlns="http://www.w3.org/2000/svg">
<path d="M29.3774 100.479L11.0791 100.458L10.9565 50.4796L0.39917 50.5002L0 34.798H10.9565V23.0002C10.9565 12.5746 21.0435 1.5 32 1.5C42.9565 1.5 45.5 2.5 47.5 3.00014V16.5002H39.5C32.7174 16.5002 29.5 21.2448 29.5 25.9363V34.798H46.4348L44.5 50.5002L29.3774 50.4796V100.479Z" fill="#0866FF"/>
<path d="M526.5 0L507.25 3V100.5H526.5V69.5L553.5 100.5H575.176L544.5 65.5L571 35H550.828L526.5 63V0Z" fill="#0866FF"/>
<path d="M149.25 0L130 3V100.5H149.25V69.5L176.25 100.5H197.926L167.25 65.5L193.75 35H173.578L149.25 63V0Z" fill="#0866FF"/>
<path fill-rule="evenodd" clip-rule="evenodd" d="M229.552 33C242.501 33 264.162 40.5181 260 73.6427H212.5C212.885 80.1603 219.5 87.5 233 87.5C242.2 87.5 250.5 83.1667 253.5 81C255.5 84 258.5 89.5 260 92.5C252.5 100.5 236.965 102.5 231 102.5C218.514 102.5 198.137 96.869 195.332 72.9457C192.526 49.0224 207.818 33 229.552 33ZM212 61.9042H243C243.5 56 240.5 47 228.5 47C216.5 47 212 58 212 61.9042Z" fill="#0866FF"/>
<path fill-rule="evenodd" clip-rule="evenodd" d="M103.545 35H120V100.5H103.545L103.725 90.647C100.949 94.3743 92.7846 102 80 102C64.0193 102 49.5 90.4233 49.5 67.3882C49.5 44.353 64.9695 33 80.5 33C95.1302 33 102.42 43.7109 103.545 45.5V35ZM102 67.3882C102 53.5 91.9277 48.5 84.5 48.5C75.0466 48.5 67.5 56 67.5 67.3882C67.5 78 73.9212 86.5 84.5 86.5C95.0788 86.5 102 79.5 102 67.3882Z" fill="#0866FF"/>
<path fill-rule="evenodd" clip-rule="evenodd" d="M290.123 0.302734L271.732 3.5V100.5H288.275L288.095 90.6469C290.871 94.3743 299.215 102 312 102C327.981 102 342.5 90.4233 342.5 67.3882C342.5 44.353 327.031 33 311.5 33C296.87 33 291.249 42.5136 290.123 44.3027V0.302734ZM290 67.3882C290 53.5 300.072 48.5 307.5 48.5C316.953 48.5 324.5 56 324.5 67.3882C324.5 78 318.079 86.5 307.5 86.5C296.921 86.5 290 79.5 290 67.3882Z" fill="#0866FF"/>
<path fill-rule="evenodd" clip-rule="evenodd" d="M384 33C393.5 33 420 38 420 68C420 98 395 102 384 102C373 102 349.5 95.5 349.5 68C349.5 40.5 372.5 33 384 33ZM402 67.5C402 53 390.5 49 384.5 49C375.5 49 367.5 58 367.5 68.5C367.5 79 377 86.5 384 86.5C391 86.5 402 82 402 67.5Z" fill="#0866FF"/>
<path fill-rule="evenodd" clip-rule="evenodd" d="M461.5 33C471 33 497.5 38 497.5 68C497.5 98 472.5 102 461.5 102C450.5 102 427 95.5 427 68C427 40.5 450 33 461.5 33ZM479.5 67.5C479.5 53 468 49 462 49C453 49 445 58 445 68.5C445 79 454.5 86.5 461.5 86.5C468.5 86.5 479.5 82 479.5 67.5Z" fill="#0866FF"/>
</svg>
