<svg width="917" height="224" viewBox="0 0 917 224" fill="none" xmlns="http://www.w3.org/2000/svg">
<path fill-rule="evenodd" clip-rule="evenodd" d="M563.5 51.4629C591.5 51.4629 646 68.4629 637 140.463H521C521.833 154.63 532 182.463 563.5 182.463C586.577 182.463 595.218 169.435 599.173 163.472C599.931 162.329 600.517 161.445 601 160.963H634C615.5 207.963 575.898 207.963 563 207.963C536 207.963 495.567 192.463 489.5 140.463C483.433 88.4629 516.5 51.4629 563.5 51.4629ZM521 116.463H605.5C605.5 97.9629 593.5 76.9629 563.5 76.9629C535.9 76.9629 523.5 99.4629 521 116.463Z" fill="#1C2B33"/>
<path d="M104.912 182.862C92.7299 203.963 79.6708 212.018 55.1355 212.018C30.6002 212.018 10.9612 175.677 9.02981 152.159C7.09845 128.64 11.4453 105.327 15.0924 94.118C36.4923 34.6745 62.0955 13.874 79.4881 12.802C96.7745 11.7366 116.011 27.8719 133.37 42.4333C138.285 46.5558 143.49 51.7639 148.811 57.6429C153.907 63.2735 159.109 69.5196 164.263 76.0171C175.135 89.7226 183.003 105.158 192.01 117.682C199.633 128.283 205.902 136.15 210.282 141.384C214.844 146.835 219.26 151.958 223.146 156.936C233.533 170.243 243.27 180.628 254.333 180.594C265.396 180.559 266.677 164.196 266.853 143.59C267.271 94.5928 246.18 56.0057 236.619 47.0534C223.32 34.6006 217.841 31.7346 210.638 32.1786C206.317 32.4449 202.051 31.0193 189.845 44.1288L189.726 44.2564C186.96 47.2268 181.911 52.6479 175.836 62.448C169.674 72.3901 152.042 58.3162 164.385 38.725C176.727 19.1338 181.767 11.5321 207.044 9.97416C252.66 7.16243 279.362 65.0141 287.599 97.0011C293.442 119.689 316.432 205.065 251.609 209.061C219.262 211.055 195.597 176.16 169.026 136.982L169.026 136.981C162.07 126.725 154.916 116.176 147.354 105.917C142.592 99.457 137.542 92.9639 132.103 86.5461C127.61 81.244 122.851 75.9934 117.77 70.8553C79.1376 31.7846 68.5 47.0534 51.1993 81.11C33.8985 115.167 34.3215 139.572 36.538 152.073C38.7545 164.574 46.05 181.914 57.5742 181.203C69.0984 180.493 81.3323 167.84 90.5449 153.084C93.2651 148.727 97.3824 141.81 102.009 134.037C111.893 117.432 117.395 111.076 123.275 103.274C129.155 95.4726 144.718 114.31 140.046 122.869C135.374 131.427 136.497 130.862 131.931 139.342C120.779 160.051 109.777 174.436 104.912 182.862Z" fill="url(#paint0_linear_226_30)"/>
<path d="M338.5 41.4629V14.9629H465V38.9629L376.5 177.963H465V205.963H338.5V180.963L427 41.4629H338.5Z" fill="#1C2B33"/>
<path d="M674.5 54.4629V15.9629H705.5V54.4629L742.5 54.7308L742.634 79.7308L705.634 79.4629C705.634 103.963 705.5 155.263 705.5 162.463C705.5 171.463 709.5 179.674 718 179.674H742.5V205.463H717.5C675.5 205.463 674.5 176.463 674.5 158.963V79.4629H656.5V54.4629H674.5Z" fill="#1C2B33"/>
<path fill-rule="evenodd" clip-rule="evenodd" d="M886 53.9629H917V205.463H886V182.963C879.833 191.296 860.4 207.963 832 207.963C796.5 207.963 761.5 178.963 761.5 127.463C761.5 75.9629 799.5 51.4629 834 51.4629C866.5 51.4629 883.5 72.9629 886 76.9629V53.9629ZM886 127.463C886 94.4629 857 77.8289 840.5 77.8289C819.5 77.8289 793 95.4629 793 129.463C793 163.463 817 181.463 840.5 181.463C864 181.463 886 160.463 886 127.463Z" fill="#1C2B33"/>
<defs>
<linearGradient id="paint0_linear_226_30" x1="249.5" y1="204.5" x2="89" y2="38" gradientUnits="userSpaceOnUse">
<stop stop-color="#0082FB"/>
<stop offset="1" stop-color="#0064E1"/>
</linearGradient>
</defs>
</svg>
